<svg width="512" height="512" viewBox="0 0 512 512" fill="none" xmlns="http://www.w3.org/2000/svg">
<g clip-path="url(#clip0_1_3)">
<path d="M256 1.12896e-05C379.83 1.12896e-05 483.219 88.0109 506.902 204.968H229.809V1.33674C238.511 0.443575 247.252 -0.00258777 256 1.12896e-05V1.12896e-05ZM506.488 308.984C482.072 424.948 379.215 512.001 256 512.001C247.104 512.001 238.397 511.551 229.809 510.676V308.984H506.488V308.984ZM125.793 476.43C65.0964 440.48 20.5113 380.198 5.52343 308.984H125.793V476.43ZM5.10941 204.968C19.6832 132.88 64.4931 71.8046 125.793 35.5592V204.968H5.10941Z" fill="#006AA7"/>
<path d="M5.52343 308.984H125.793V476.43C156.845 494.801 192.121 506.855 229.809 510.676V308.984H506.487C510.084 291.891 512 274.159 512 255.989C512 238.517 510.249 221.447 506.902 204.968H229.809V1.33673C193.062 5.04729 157.565 16.7261 125.793 35.5592V204.968H5.10941C1.74985 221.447 0.0109253 238.517 0.0109253 255.989C0.0109253 274.159 1.92729 291.891 5.52343 308.984V308.984Z" fill="#FECC00"/>
</g>
<defs>
<clipPath id="clip0_1_3">
<rect width="512" height="512" fill="white"/>
</clipPath>
</defs>
</svg>
